<svg xmlns="http://www.w3.org/2000/svg" xmlns:xlink="http://www.w3.org/1999/xlink" width="500" zoomAndPan="magnify" viewBox="0 0 375 374.999991" height="500" preserveAspectRatio="xMidYMid meet" version="1.0"><defs><clipPath id="1c813c08d7"><path d="M 93.800781 89.710938 L 280.875 89.710938 L 280.875 285.488281 L 93.800781 285.488281 Z M 93.800781 89.710938 " clip-rule="nonzero"/></clipPath><clipPath id="3aa53e458b"><path d="M 9.300781 9.300781 L 366.046875 9.300781 L 366.046875 366.046875 L 9.300781 366.046875 Z M 9.300781 9.300781 " clip-rule="nonzero"/></clipPath></defs><rect x="-37.5" width="450" fill="#ffffff" y="-37.499999" height="449.999989" fill-opacity="1"/><rect x="-37.5" width="450" fill="#ffffff" y="-37.499999" height="449.999989" fill-opacity="1"/><rect x="-37.5" width="450" fill="#0a1a3b" y="-37.499999" height="449.999989" fill-opacity="1"/><g clip-path="url(#1c813c08d7)"><path fill="#ffffff" d="M 93.800781 256.675781 L 93.800781 285.425781 L 114.074219 265.097656 L 132.203125 246.921875 L 134.347656 244.769531 L 152.476562 226.59375 L 171.179688 207.839844 L 172.75 206.261719 L 173.1875 205.824219 L 173.621094 206.261719 L 202.515625 206.261719 C 223.3125 206.261719 240.328125 189.199219 240.328125 168.347656 C 240.328125 147.492188 223.3125 130.429688 202.515625 130.429688 L 134.347656 130.429688 L 134.347656 150.757812 L 202.515625 150.757812 C 212.160156 150.757812 220.054688 158.671875 220.054688 168.347656 C 220.054688 178.019531 212.160156 185.933594 202.515625 185.933594 L 164.351562 185.933594 L 144.078125 206.261719 L 134.347656 216.019531 L 123.804688 226.59375 L 114.074219 236.347656 L 114.074219 110.101562 L 202.515625 110.101562 C 234.460938 110.101562 260.601562 136.3125 260.601562 168.347656 C 260.601562 194.316406 243.421875 216.457031 219.894531 223.910156 C 214.402344 225.652344 208.5625 226.59375 202.515625 226.59375 L 181.148438 226.59375 L 160.875 246.921875 L 202.515625 246.921875 C 206.210938 246.921875 209.847656 246.660156 213.410156 246.160156 L 252.574219 285.425781 L 280.875 285.425781 L 280.875 285.058594 L 235.511719 239.570312 C 262.242188 227.023438 280.875 199.761719 280.875 168.347656 C 280.875 125.128906 245.613281 89.773438 202.515625 89.773438 L 93.800781 89.773438 Z M 93.800781 256.675781 " fill-opacity="1" fill-rule="evenodd"/></g><g clip-path="url(#3aa53e458b)"><path fill="#ffffff" d="M 187.675781 366.046875 C 89.128906 366.046875 9.300781 285.667969 9.300781 187.675781 C 9.300781 89.679688 89.128906 9.300781 187.675781 9.300781 C 286.21875 9.300781 366.046875 89.128906 366.046875 187.675781 C 366.046875 286.21875 285.667969 366.046875 187.675781 366.046875 Z M 187.675781 20.3125 C 95.183594 20.3125 20.3125 95.183594 20.3125 187.675781 C 20.3125 280.164062 95.183594 355.039062 187.675781 355.039062 C 280.164062 355.039062 355.039062 280.164062 355.039062 187.675781 C 355.039062 95.183594 279.613281 20.3125 187.675781 20.3125 Z M 187.675781 20.3125 " fill-opacity="1" fill-rule="nonzero"/></g></svg>