<svg xmlns="http://www.w3.org/2000/svg" xmlns:xlink="http://www.w3.org/1999/xlink" width="500" zoomAndPan="magnify" viewBox="0 0 375 374.999991" height="500" preserveAspectRatio="xMidYMid meet" version="1.0"><defs><clipPath id="5b0857a167"><path d="M 34.96875 28.3125 L 340.21875 28.3125 L 340.21875 347 L 34.96875 347 Z M 34.96875 28.3125 " clip-rule="nonzero"/></clipPath></defs><g clip-path="url(#5b0857a167)"><path fill="#ffffff" d="M 34.96875 300.152344 L 34.96875 346.964844 L 68.050781 313.863281 L 97.628906 284.269531 L 101.132812 280.765625 L 130.710938 251.171875 L 161.226562 220.640625 L 163.789062 218.074219 L 164.503906 217.359375 L 165.214844 218.074219 L 212.355469 218.074219 C 246.289062 218.074219 274.054688 190.292969 274.054688 156.339844 C 274.054688 122.386719 246.289062 94.609375 212.355469 94.609375 L 101.132812 94.609375 L 101.132812 127.707031 L 212.355469 127.707031 C 228.097656 127.707031 240.976562 140.589844 240.976562 156.339844 C 240.976562 172.089844 228.097656 184.972656 212.355469 184.972656 L 150.085938 184.972656 L 117.003906 218.074219 L 101.132812 233.957031 L 83.925781 251.171875 L 68.050781 267.054688 L 68.050781 61.507812 L 212.355469 61.507812 C 264.484375 61.507812 307.136719 104.183594 307.136719 156.339844 C 307.136719 198.625 279.105469 234.671875 240.71875 246.808594 C 231.753906 249.640625 222.226562 251.171875 212.355469 251.171875 L 177.492188 251.171875 L 144.414062 284.269531 L 212.355469 284.269531 C 218.386719 284.269531 224.320312 283.847656 230.136719 283.027344 L 294.035156 346.960938 L 340.21875 346.960938 L 340.21875 346.359375 L 266.199219 272.300781 C 309.816406 251.871094 340.21875 207.488281 340.21875 156.339844 C 340.21875 85.980469 282.679688 28.410156 212.355469 28.410156 L 34.96875 28.410156 Z M 34.96875 300.152344 " fill-opacity="1" fill-rule="evenodd"/></g></svg>